<svg
  xmlns="http://www.w3.org/2000/svg"
  viewBox="0 0 32 32"
  fill="white"
>
  <path
    stroke="white"
    stroke-width="2px"
    d="M16 31a5 5 0 01-5-5 1 1 0 012 0 3 3 0 001 2 3 3 0 004 0 1 1 0 012 2 5 5 0 01-4 1zM16 6a1 1 0 01-1-1V2a1 1 0 012 0v3a1 1 0 01-1 1z"
  />
  <path stroke="white" d="M15-2h2v37h-2z" transform="rotate(-47 16 16)" />
  <path
    stroke="white"
    stroke-width="2px"
    d="M27 27H5a1 1 0 01-1-1 18 18 0 002-8v-4a8 8 0 010-1 1 1 0 112 0 6 6 0 000 1v4a20 20 0 01-1 7h20a1 1 0 110 2zM25 20a1 1 0 01-1-1v-5a8 8 0 00-12-7 8 8 0 00-3 3 1 1 0 11-1-2 10 10 0 013-3 10 10 0 0112 2 10 10 0 013 7v5a1 1 0 01-1 1z"
  />
</svg>